<svg width="131" height="32" viewBox="0 0 131 32" fill="none" xmlns="http://www.w3.org/2000/svg">
<path d="M23.0804 27.8833C24.6937 28.6167 26.7471 28.6167 28.3604 27.8833C29.9737 27.15 32.0271 27.15 33.6404 27.8833C35.2537 28.6167 37.3071 28.6167 38.9204 27.8833M31.0003 4V6.66667M20.3337 17.3333H17.667M23.4191 9.75215L21.5335 7.86654M38.5811 9.75215L40.4667 7.86654M44.3337 17.3333H41.667M24.3337 17.3333C24.3337 13.6514 27.3184 10.6667 31.0003 10.6667C34.6822 10.6667 37.667 13.6514 37.667 17.3333M17.8005 23.2167C19.4138 22.4833 21.4671 22.4833 23.0805 23.2167C24.6938 23.95 26.7471 23.95 28.3605 23.2167C29.9738 22.4833 32.0271 22.4833 33.6405 23.2167C35.2538 23.95 37.3071 23.95 38.9205 23.2167C40.5338 22.4833 42.5871 22.4833 44.2005 23.2167" stroke="url(#paint0_linear_262_22229)" stroke-width="3" stroke-linecap="square"/>
<path d="M59.4258 25L53.3555 6.67969H57.6758L61.0664 18.2461L64.8945 6.67969H67.4375L71.2383 18.2461L74.7109 6.67969H79.0312L72.8242 25H70.1992L66.1523 13.2148L62.0508 25H59.4258ZM80.837 25V6.54297H82.1222L89.9425 14.6914L97.7081 6.54297H98.9933V25H95.1925V13.8438L90.4894 18.9844H89.3956L84.6378 13.8438V25H80.837ZM107.416 25.3281C106.341 25.3281 105.311 25.1458 104.326 24.7812C103.342 24.3984 102.485 23.9518 101.756 23.4414V19.832C102.558 20.4154 103.461 20.9076 104.463 21.3086C105.484 21.7096 106.541 21.9102 107.635 21.9102C108.401 21.9102 109.03 21.737 109.522 21.3906C110.032 21.0443 110.287 20.5703 110.287 19.9688C110.287 19.6589 110.178 19.3854 109.959 19.1484C109.759 18.8932 109.494 18.6745 109.166 18.4922C108.856 18.2917 108.519 18.1276 108.155 18L105.338 16.9062C104.39 16.5417 103.652 16.1042 103.123 15.5938C102.595 15.0833 102.221 14.5182 102.002 13.8984C101.802 13.2604 101.701 12.5859 101.701 11.875C101.701 10.7448 102.002 9.76953 102.604 8.94922C103.224 8.11068 104.026 7.46354 105.01 7.00781C106.013 6.55208 107.079 6.32422 108.209 6.32422C109.285 6.32422 110.26 6.47005 111.135 6.76172C112.01 7.05339 112.739 7.39062 113.322 7.77344V11.3828C112.666 10.9635 111.937 10.5898 111.135 10.2617C110.351 9.91536 109.485 9.74219 108.537 9.74219C108.063 9.74219 107.608 9.82422 107.17 9.98828C106.733 10.1523 106.368 10.3893 106.076 10.6992C105.803 11.0091 105.666 11.401 105.666 11.875C105.666 12.4766 105.931 12.9414 106.459 13.2695C106.988 13.5794 107.635 13.8984 108.401 14.2266L110.588 15.1562C111.882 15.7031 112.83 16.3503 113.432 17.0977C114.052 17.8268 114.362 18.7201 114.362 19.7773C114.362 20.8711 114.043 21.8372 113.405 22.6758C112.785 23.4961 111.946 24.1432 110.889 24.6172C109.85 25.0911 108.692 25.3281 107.416 25.3281Z" fill="#059BB4"/>
<defs>
<linearGradient id="paint0_linear_262_22229" x1="17.667" y1="4" x2="17.6618" y2="28.4277" gradientUnits="userSpaceOnUse">
<stop stop-color="#D46213"/>
<stop offset="0.5" stop-color="#F97316"/>
<stop offset="1" stop-color="#FA8E42"/>
</linearGradient>
</defs>
</svg>
